#!OML:ASF I:\Actors\actors\Patient Classification 2\Patient 1\Session 1\actor1.ASF
:FULLY-SPECIFIED
:DEGREES
452
root -0.424011 18.6495 6.50441 3.31573 -17.6942 -4.82006
lowerback 3.52186 -2.31302 -0.651281
upperback -2.09794 -3.07509 1.36871
thorax -4.02679 -1.49316 1.98809
lowerneck 5.68746 -20.3057 -15.1967
upperneck 3.55663 -29.1528 17.6326
head 4.96608 -14.6454 5.66476
rclavicle 5.76351e-014 7.15625e-015
rhumerus 24.4244 6.62594 -69.0745
rradius 92.253
rwrist 2.50319
rhand -31.1311 -38.3697
rfingers 7.12502
rthumb -4.40973 -68.3038
lclavicle 5.76351e-014 7.15625e-015
lhumerus -51.7626 -1.71141 88.1618
lradius 48.3151
lwrist -0.145321
lhand -5.55215 -25.8683
lfingers 7.12502
lthumb 20.2628 3.09472
rfemur 0 0 0
rtibia 0
rfoot 0 0
rtoes 0
lfemur 0.44159 -1.97945 -12.8158
ltibia 21.5543
lfoot -31.6529 21.1492
ltoes -52.005
453
root -0.425293 18.6507 6.5058 3.33858 -17.5229 -4.804
lowerback 3.49683 -2.21689 -0.563538
upperback -2.15166 -2.94111 1.38846
thorax -4.07665 -1.42792 1.95111
lowerneck 4.79267 -19.7681 -14.8295
upperneck 4.10166 -28.299 17.0495
head 4.9956 -14.1708 5.49455
rclavicle -2.54693e-015 -5.96354e-015
rhumerus 23.4568 6.74724 -68.2038
rradius 93.8838
rwrist 3.18066
rhand -32.1325 -37.2875
rfingers 7.12502
rthumb -5.37663 -67.1993
lclavicle -2.54693e-015 -5.96354e-015
lhumerus -51.5869 -1.70329 88.2023
lradius 48.2987
lwrist -0.0309578
lhand -5.0993 -25.6801
lfingers 7.12502
lthumb 20.698 3.23615
rfemur 0 0 0
rtibia 0
rfoot 0 0
rtoes 0
lfemur 0.362742 -2.02965 -12.8015
ltibia 21.5734
lfoot -31.5779 21.0977
ltoes -52.045
454
root -0.428007 18.6524 6.507 3.37431 -17.3047 -4.77453
lowerback 3.61233 -2.11911 -0.469924
upperback -2.33128 -2.80457 1.38643
thorax -4.33814 -1.35934 1.89831
lowerneck 4.52695 -18.9823 -14.502
upperneck 3.85933 -27.1261 17.0067
head 4.73124 -13.5895 5.62174
rclavicle 3.84027e-014 -1.47101e-014
rhumerus 22.084 7.03619 -67.2358
rradius 95.6808
rwrist 3.83199
rhand -32.9413 -36.068
rfingers 7.12502
rthumb -6.15754 -65.9585
lclavicle 3.84027e-014 -1.47101e-014
lhumerus -51.5612 -1.64013 88.1793
lradius 48.3183
lwrist 0.161736
lhand -4.31835 -25.4757
lfingers 7.12502
lthumb 21.4482 3.35698
rfemur 0 0 0
rtibia 0
rfoot 0 0
rtoes 0
lfemur 0.247002 -2.03005 -12.7736
ltibia 21.6034
lfoot -31.4353 20.9785
ltoes -52.1518
455
root -0.431183 18.6539 6.50897 3.41265 -17.0529 -4.74501
lowerback 3.83328 -2.01182 -0.349156
upperback -2.59452 -2.65306 1.37302
thorax -4.74902 -1.28303 1.8236
lowerneck 4.03044 -18.1788 -14.1874
upperneck 4.02724 -25.9542 16.8229
head 4.61371 -12.9876 5.66017
rclavicle -1.25234e-014 1.07344e-014
rhumerus 20.3252 7.47548 -66.1233
rradius 97.6459
rwrist 4.32332
rhand -33.3927 -34.7577
rfingers 7.12502
rthumb -6.59332 -64.6351
lclavicle -1.25234e-014 1.07344e-014
lhumerus -51.6695 -1.64024 88.2042
lradius 48.3063
lwrist 0.166151
lhand -4.07558 -25.3148
lfingers 7.12502
lthumb 21.6814 3.49112
rfemur 0 0 0
rtibia 0
rfoot 0 0
rtoes 0
lfemur 0.118294 -1.91547 -12.7166
ltibia 21.6349
lfoot -31.1663 20.7811
ltoes -52.3241
456
root -0.434195 18.6545 6.51217 3.43894 -16.7688 -4.71687
lowerback 3.89167 -1.9023 -0.226827
upperback -2.74566 -2.49904 1.35552
thorax -4.95086 -1.20867 1.73204
lowerneck 2.74504 -17.4982 -13.6575
upperneck 5.07556 -24.9139 15.9742
head 4.79828 -12.3963 5.35193
rclavicle -8.59744e-015 8.74653e-015
rhumerus 18.3977 7.9995 -64.932
rradius 99.7181
rwrist 4.66719
rhand -33.5339 -32.8571
rfingers 7.12502
rthumb -6.72967 -62.7301
lclavicle -8.59744e-015 8.74653e-015
lhumerus -51.5412 -1.71022 88.2575
lradius 48.1657
lwrist 0.018163
lhand -4.26215 -25.2522
lfingers 7.12502
lthumb 21.5022 3.57431
rfemur 0 0 0
rtibia 0
rfoot 0 0
rtoes 0
lfemur 0.00528734 -1.94787 -12.6851
ltibia 21.6655
lfoot -30.9959 20.6304
ltoes -52.3951
457
root -0.438521 18.6543 6.51573 3.42921 -16.4389 -4.69125
lowerback 3.84068 -1.78431 -0.110244
upperback -2.78692 -2.33539 1.32621
thorax -4.97553 -1.1317 1.62268
lowerneck 1.43778 -16.7956 -12.9107
upperneck 5.89358 -23.8055 15.0761
head 4.89135 -11.779 5.01879
rclavicle 1.68222e-014 7.15625e-015
rhumerus 16.2895 8.61084 -63.7818
rradius 101.848
rwrist 5.13677
rhand -33.8545 -30.8898
rfingers 7.12502
rthumb -7.03912 -60.7527
lclavicle 1.68222e-014 7.15625e-015
lhumerus -51.1929 -1.77582 88.2629
lradius 47.9952
lwrist -0.14664
lhand -4.38814 -25.3243
lfingers 7.12502
lthumb 21.3812 3.51597
rfemur 0 0 0
rtibia 0
rfoot 0 0
rtoes 0
lfemur -0.068631 -2.09619 -12.6616
ltibia 21.7013
lfoot -30.9061 20.4826
ltoes -52.413
458
root -0.44365 18.6542 6.519 3.38341 -16.0377 -4.69684
lowerback 3.79798 -1.67674 0.0707593
upperback -2.79634 -2.18238 1.28758
thorax -4.97333 -1.06272 1.46802
lowerneck 0.474508 -16.0054 -12.1671
upperneck 6.25797 -22.5925 14.424
head 4.82665 -11.1361 4.81062
rclavicle -3.20043e-014 2.78299e-015
rhumerus 13.9144 9.41814 -62.6794
rradius 103.983
rwrist 5.64831
rhand -34.0469 -29.1497
rfingers 7.12502
rthumb -7.22481 -59.0064
lclavicle -3.20043e-014 2.78299e-015
lhumerus -50.808 -1.83122 88.2406
lradius 47.8437
lwrist -0.300792
lhand -4.43903 -25.4021
lfingers 7.12502
lthumb 21.3323 3.44376
rfemur 0 0 0
rtibia 0
rfoot 0 0
rtoes 0
lfemur -0.110083 -2.21714 -12.5805
ltibia 21.7407
lfoot -30.7399 20.2863
ltoes -52.5344
459
root -0.448456 18.6539 6.5197 3.33219 -15.5196 -4.68037
lowerback 3.75394 -1.60681 0.245543
upperback -2.82119 -2.08032 1.24447
thorax -4.98433 -1.01881 1.31662
lowerneck -0.373877 -15.1558 -11.4902
upperneck 6.64757 -21.3228 13.7585
head 4.76669 -10.4739 4.61375
rclavicle -7.3774e-014 9.14409e-015
rhumerus 11.1885 10.5083 -61.6959
rradius 106.095
rwrist 6.13161
rhand -33.7302 -27.4506
rfingers 7.12502
rthumb -6.91912 -57.3175
lclavicle -7.3774e-014 9.14409e-015
lhumerus -50.4556 -1.94026 88.2591
lradius 47.7062
lwrist -0.415501
lhand -4.49099 -25.3654
lfingers 7.12502
lthumb 21.2824 3.48611
rfemur 0 0 0
rtibia 0
rfoot 0 0
rtoes 0
lfemur -0.199812 -2.34998 -12.4957
ltibia 21.7838
lfoot -30.4675 20.0636
ltoes -52.7418
460
root -0.455136 18.6531 6.51745 3.27718 -14.9576 -4.61904
lowerback 3.73747 -1.5436 0.312816
upperback -2.8673 -1.99237 1.22368
thorax -5.02783 -0.977616 1.25105
lowerneck -0.89813 -14.2175 -10.9891
upperneck 6.68558 -19.9589 13.399
head 4.60274 -9.78358 4.56562
rclavicle 2.92959e-014 -1.98785e-015
rhumerus 8.13891 11.8399 -60.9269
rradius 108.176
rwrist 6.69523
rhand -33.1179 -25.8222
rfingers 7.12502
rthumb -6.32803 -55.7077
lclavicle 2.92959e-014 -1.98785e-015
lhumerus -50.1345 -2.01736 88.3188
lradius 47.5608
lwrist -0.589974
lhand -4.67118 -25.3519
lfingers 7.12502
lthumb 21.1093 3.51902
rfemur 0 0 0
rtibia 0
rfoot 0 0
rtoes 0
lfemur -0.324942 -2.52368 -12.4498
ltibia 21.8302
lfoot -30.1648 19.8676
ltoes -52.9522
461
root -0.46459 18.6523 6.51685 3.22484 -14.4528 -4.56303
lowerback 3.68834 -1.47175 0.337831
upperback -2.90204 -1.89472 1.22821
thorax -5.03849 -0.929891 1.2332
lowerneck -1.48236 -13.2998 -10.4975
upperneck 6.7466 -18.6286 13.0312
head 4.47136 -9.10668 4.4968
rclavicle -2.76186e-014 -3.57812e-015
rhumerus 4.85974 13.4195 -60.4748
rradius 109.955
rwrist 7.90752
rhand -32.6292 -24.0152
rfingers 7.12502
rthumb -5.85625 -53.9143
lclavicle -2.76186e-014 -3.57812e-015
lhumerus -49.8037 -1.97228 88.3556
lradius 47.4114
lwrist -0.767249
lhand -4.71892 -25.3394
lfingers 7.12502
lthumb 21.0635 3.53663
rfemur 0 0 0
rtibia 0
rfoot 0 0
rtoes 0
lfemur -0.431184 -2.70694 -12.4082
ltibia 21.8742
lfoot -29.9264 19.7067
ltoes -53.1264
462
root -0.474049 18.6519 6.51794 3.16625 -13.9373 -4.51438
lowerback 3.68082 -1.40203 0.401515
upperback -2.95541 -1.79773 1.21595
thorax -5.09403 -0.883969 1.17811
lowerneck -2.7171 -12.5608 -9.73195
upperneck 7.66772 -17.5312 11.9736
head 4.65872 -8.51818 4.08825
rclavicle -3.48743e-014 -5.1684e-015
rhumerus 1.29979 14.9444 -60.3655
rradius 111.686
rwrist 7.76176
rhand -31.4378 -21.524
rfingers 7.12502
rthumb -4.7059 -51.4518
lclavicle -3.48743e-014 -5.1684e-015
lhumerus -49.502 -1.939 88.3772
lradius 47.247
lwrist -0.993768
lhand -4.77887 -25.4509
lfingers 7.12502
lthumb 21.0059 3.43149
rfemur 0 0 0
rtibia 0
rfoot 0 0
rtoes 0
lfemur -0.528129 -2.88633 -12.3573
ltibia 21.9224
lfoot -29.7217 19.4985
ltoes -53.2786
463
root -0.482978 18.651 6.51803 3.07803 -13.3744 -4.4671
lowerback 3.71931 -1.32702 0.496773
upperback -2.9684 -1.69251 1.18112
thorax -5.13506 -0.835613 1.0817
lowerneck -4.05593 -11.8539 -8.92168
upperneck 8.66587 -16.4907 10.9183
head 4.91193 -7.9586 3.65924
rclavicle -1.88845e-014 1.39149e-014
rhumerus -2.65202 16.674 -60.4474
rradius 113.128
rwrist 8.32942
rhand -30.7254 -20.1167
rfingers 7.12502
rthumb -4.01801 -50.0586
lclavicle -1.88845e-014 1.39149e-014
lhumerus -49.1201 -1.97595 88.4003
lradius 47.0426
lwrist -1.25953
lhand -4.99424 -25.7016
lfingers 7.12502
lthumb 20.7989 3.20363
rfemur 0 0 0
rtibia 0
rfoot 0 0
rtoes 0
lfemur -0.610291 -3.02384 -12.2906
ltibia 21.9825
lfoot -29.4661 19.212
ltoes -53.4219
464
root -0.493739 18.6497 6.51843 2.98012 -12.8094 -4.44859
lowerback 3.65976 -1.23988 0.602184
upperback -2.89866 -1.572 1.15575
thorax -5.03335 -0.780314 0.98373
lowerneck -5.09539 -11.1073 -8.21659
upperneck 9.23758 -15.4225 10.2337
head 5.04227 -7.39764 3.38726
rclavicle -2.31087e-015 7.15625e-015
rhumerus -6.82415 18.4209 -60.853
rradius 114.283
rwrist 8.86871
rhand -30.5439 -19.0697
rfingers 7.12502
rthumb -3.84272 -49.0148
lclavicle -2.31087e-015 7.15625e-015
lhumerus -48.6773 -2.06581 88.4526
lradius 46.9778
lwrist -1.26772
lhand -4.93777 -25.5759
lfingers 7.12502
lthumb 20.8532 3.32339
rfemur 0 0 0
rtibia 0
rfoot 0 0
rtoes 0
lfemur -0.673574 -3.0971 -12.1799
ltibia 22.0401
lfoot -29.1625 18.8926
ltoes -53.5794
465
root -0.505727 18.6484 6.51982 2.88335 -12.2484 -4.44972
lowerback 3.56134 -1.15254 0.680975
upperback -2.82893 -1.45217 1.16276
thorax -4.90755 -0.723704 0.933634
lowerneck -6.29817 -10.4463 -7.4384
upperneck 10.0987 -14.4693 9.26725
head 5.28859 -6.89807 2.99367
rclavicle -9.41742e-015 1.98785e-014
rhumerus -11.1614 20.2093 -61.7761
rradius 114.939
rwrist 9.35566
rhand -30.4576 -18.0568
rfingers 7.12502
rthumb -3.75936 -48.0034
lclavicle -9.41742e-015 1.98785e-014
lhumerus -48.3311 -2.18078 88.5639
lradius 47.0394
lwrist -1.17842
lhand -4.82357 -25.284
lfingers 7.12502
lthumb 20.9629 3.60316
rfemur 0 0 0
rtibia 0
rfoot 0 0
rtoes 0
lfemur -0.729934 -3.1951 -12.0505
ltibia 22.0946
lfoot -28.888 18.5994
ltoes -53.7681
466
root -0.517971 18.6468 6.52034 2.75935 -11.6606 -4.399
lowerback 3.48794 -1.05116 0.692266
upperback -2.76059 -1.31849 1.14094
thorax -4.79647 -0.658229 0.891561
lowerneck -7.42161 -9.82801 -6.65219
upperneck 10.9126 -13.59 8.33839
head 5.53388 -6.44237 2.60949
rclavicle -2.33448e-014 9.54166e-015
rhumerus -15.6607 21.8255 -63.2494
rradius 115.051
rwrist 9.57075
rhand -29.473 -17.6872
rfingers 7.12502
rthumb -2.80853 -47.6485
lclavicle -2.33448e-014 9.54166e-015
lhumerus -47.9751 -2.3944 88.6789
lradius 47.021
lwrist -1.16437
lhand -4.87517 -25.2825
lfingers 7.12502
lthumb 20.9133 3.61016
rfemur 0 0 0
rtibia 0
rfoot 0 0
rtoes 0
lfemur -0.777336 -3.402 -11.9883
ltibia 22.1595
lfoot -28.6967 18.3164
ltoes -53.8683
